{"extensionsUsed" : ["KHR_materials_emissive_strength"], "accessors" : [{"bufferView" : 0, "byteOffset" : 0, "componentType" : 5123, "count" : 528, "type" : "SCALAR", "max" : [89], "min" : [0]}, {"bufferView" : 1, "byteOffset" : 0, "componentType" : 5126, "count" : 90, "type" : "VEC3", "max" : [0.8686020970344543, 0.2141316682100296, 0.7453579902648926], "min" : [-0.8686020970344543, 0, -0.9133022427558899], "name" : "POSITION"}, {"bufferView" : 1, "byteOffset" : 12, "componentType" : 5126, "count" : 90, "type" : "VEC3", "max" : [0.9331654906272888, 0.938420832157135, 0.9670137763023376], "min" : [-0.9969372749328613, -0.938420832157135, -0.9086927175521851], "name" : "NORMAL"}, {"bufferView" : 1, "byteOffset" : 24, "componentType" : 5126, "count" : 90, "type" : "VEC2", "max" : [0, 2], "min" : [0, 2], "name" : "TEXCOORD_0"}, {"bufferView" : 2, "byteOffset" : 0, "componentType" : 5126, "normalized" : false, "count" : 210, "type" : "SCALAR", "max" : [8.75], "min" : [0.0416666679084301]}, {"bufferView" : 2, "byteOffset" : 840, "componentType" : 5126, "normalized" : false, "count" : 210, "type" : "VEC3", "max" : [0.0744866132736206, 6.3825249671936035, -0.4913644790649414], "min" : [-0.297439306974411, 3.415144920349121, -1.7920372486114502]}], "animations" : [{"channels" : [{"sampler" : 0, "target" : {"node" : 0, "path" : "translation"}}], "samplers" : [{"input" : 4, "interpolation" : "LINEAR", "output" : 5}], "name" : "star.001Action"}], "asset" : {"generator" : "Aspose.3D 24.4.1", "version" : "2.0"}, "buffers" : [{"uri" : "data:application/octet-stream;base64,", "byteLength" : 7308}], "bufferViews" : [{"buffer" : 0, "byteOffset" : 0, "byteLength" : 1056, "target" : 34963}, {"buffer" : 0, "byteOffset" : 1060, "byteLength" : 2880, "byteStride" : 32, "target" : 34962}, {"buffer" : 0, "byteOffset" : 3944, "byteLength" : 3360}], "materials" : [{"name" : "gstar.001", "extensions" : {"KHR_materials_emissive_strength" : {"emissiveStrength" : 7.499999523162842}}, "pbrMetallicRoughness" : {"baseColorFactor" : [0, 0, 0, 1], "metallicFactor" : 1, "roughnessFactor" : 1}, "emissiveFactor" : [1, 0.9405868649482727, 0.10320267826318741], "alphaMode" : "OPAQUE", "doubleSided" : true}], "meshes" : [{"primitives" : [{"attributes" : {"POSITION" : 1, "NORMAL" : 2, "TEXCOORD_0" : 3}, "indices" : 0, "material" : 0, "mode" : 4}]}], "nodes" : [{"mesh" : 0, "rotation" : [-0.5617715792905305, -0.01627084981040539, -0.24611746583966354, 0.7896671103424103], "scale" : [4.321934804822182, 4.321935348046075, 4.321935244148256], "translation" : [0.0744866132736206, 3.415144920349121, -0.4913644790649414], "name" : "star.001"}], "scene" : 0, "scenes" : [{"nodes" : [0]}]}